<svg xmlns="http://www.w3.org/2000/svg" width="24.999" height="25" viewBox="0 0 24.999 25">
  <path id="Facebook_Square" data-name="Facebook Square" d="M22.321,1.875H2.678A2.679,2.679,0,0,0,0,4.553H0V24.2H0a2.678,2.678,0,0,0,2.679,2.678h7.659v-8.5H6.821v-4h3.516V11.325c0-3.468,2.065-5.384,5.227-5.384a21.3,21.3,0,0,1,3.1.27v3.4H16.917a2,2,0,0,0-2.256,2.161v2.6H18.5l-.614,4H14.662v8.5h7.658A2.679,2.679,0,0,0,25,24.2V4.553h0a2.679,2.679,0,0,0-2.679-2.679Z" transform="translate(0.001 -1.874)" fill="#fff"/>
</svg>
