<svg xmlns="http://www.w3.org/2000/svg" width="24.999" height="24.993" viewBox="0 0 24.999 24.993">
  <path id="Instagram" d="M12.5,7.953a6.408,6.408,0,1,0,6.408,6.408A6.4,6.4,0,0,0,12.5,7.953Zm0,10.574a4.166,4.166,0,1,1,4.166-4.166A4.174,4.174,0,0,1,12.5,18.527ZM20.662,7.691A1.495,1.495,0,1,1,19.168,6.2,1.491,1.491,0,0,1,20.662,7.691Zm4.244,1.517a7.4,7.4,0,0,0-2.019-5.237,7.445,7.445,0,0,0-5.237-2.019c-2.063-.117-8.248-.117-10.312,0A7.434,7.434,0,0,0,2.1,3.966,7.421,7.421,0,0,0,.083,9.2c-.117,2.063-.117,8.248,0,10.312A7.4,7.4,0,0,0,2.1,24.751,7.455,7.455,0,0,0,7.339,26.77c2.063.117,8.248.117,10.312,0a7.4,7.4,0,0,0,5.237-2.019,7.445,7.445,0,0,0,2.019-5.237C25.023,17.451,25.023,11.272,24.906,9.208Zm-2.666,12.52A4.218,4.218,0,0,1,19.865,24.1c-1.645.653-5.549.5-7.367.5s-5.728.145-7.367-.5a4.218,4.218,0,0,1-2.376-2.376c-.653-1.645-.5-5.549-.5-7.367s-.145-5.728.5-7.367A4.218,4.218,0,0,1,5.131,4.618c1.645-.653,5.549-.5,7.367-.5s5.728-.145,7.367.5a4.218,4.218,0,0,1,2.376,2.376c.653,1.645.5,5.549.5,7.367S22.893,20.089,22.241,21.728Z" transform="translate(0.004 -1.865)" fill="#fff"/>
</svg>
