<svg xmlns="http://www.w3.org/2000/svg" width="24.999" height="24.999" viewBox="0 0 24.999 24.999">
  <path id="Twitter_Square" data-name="Twitter Square" d="M22.32,1.875H2.678A2.679,2.679,0,0,0,0,4.553V24.2a2.679,2.679,0,0,0,2.678,2.678H22.32A2.679,2.679,0,0,0,25,24.2V4.553A2.679,2.679,0,0,0,22.32,1.875Zm-2.729,8.861c.011.156.011.318.011.474A10.341,10.341,0,0,1,9.19,21.623a10.364,10.364,0,0,1-5.619-1.641,7.709,7.709,0,0,0,.882.045A7.337,7.337,0,0,0,9,18.464a3.665,3.665,0,0,1-3.421-2.539,3.944,3.944,0,0,0,1.652-.067A3.66,3.66,0,0,1,4.3,12.265V12.22a3.657,3.657,0,0,0,1.652.463h0A3.651,3.651,0,0,1,4.318,9.636a3.614,3.614,0,0,1,.5-1.847,10.391,10.391,0,0,0,7.544,3.828A3.667,3.667,0,0,1,18.6,8.275a7.171,7.171,0,0,0,2.321-.882,3.65,3.65,0,0,1-1.607,2.014,7.283,7.283,0,0,0,2.109-.569,7.7,7.7,0,0,1-1.836,1.9Z" transform="translate(0 -1.875)" fill="#fff"/>
</svg>
