<svg xmlns="http://www.w3.org/2000/svg" width="15" height="15" viewBox="0 0 15 15">
  <path id="thin_0544_world_earth_worldwide_international_language" data-name="thin 0544 world earth worldwide international language" d="M15.225,8.2c0-.019.006-.038.006-.058s-.006-.026-.006-.038c0-.089.013-.173.013-.256a7.464,7.464,0,0,0-.631-3.005.6.6,0,0,0-.032-.064A7.491,7.491,0,0,0,7.832.344C7.813.344,7.8.338,7.787.338H7.774A.275.275,0,0,1,7.743.331H7.723A.006.006,0,0,1,7.717.325H7.692A7.477,7.477,0,0,0,.907,4.761a.2.2,0,0,0-.032.064,7.511,7.511,0,0,0-.631,3c0,.077.006.153.006.23a.153.153,0,0,0-.013.058.246.246,0,0,0,.02.1,7.456,7.456,0,0,0,.9,3.215c.006.013.019.032.025.045a7.491,7.491,0,0,0,6.49,3.853h.019v-.006h.013c.006,0,.019-.006.025-.006h.006c.013,0,.025-.006.045-.006a7.469,7.469,0,0,0,6.45-3.86.278.278,0,0,1,.025-.045,7.516,7.516,0,0,0,.9-3.26ZM.936,8.466H3.842a13.35,13.35,0,0,0,.338,2.557H1.672A6.7,6.7,0,0,1,.926,8.466Zm.472-3.2H4.055a13.357,13.357,0,0,0-.234,2.557H.9A6.794,6.794,0,0,1,1.4,5.27ZM14.6,7.827H11.685a14.644,14.644,0,0,0-.236-2.557h2.635a6.92,6.92,0,0,1,.5,2.557Zm-3.55,0H8.058V5.27h2.728a13.532,13.532,0,0,1,.249,2.557Zm-2.989-3.2V1.019c1.1.2,2.071,1.63,2.588,3.612H8.052Zm-.637-3.61v3.61H4.846c.51-1.975,1.473-3.389,2.569-3.61Zm0,4.249V7.827H4.451A13.027,13.027,0,0,1,4.7,5.27H7.414Zm-2.957,3.2H7.414v2.557H4.827a12.286,12.286,0,0,1-.37-2.557Zm2.951,3.2v3.03c-.988-.2-1.863-1.368-2.4-3.036h2.4Zm.637,3.03V11.655h2.416c-.548,1.675-1.426,2.844-2.422,3.03Zm0-3.675V8.459h2.97a13.2,13.2,0,0,1-.37,2.557H8.045Zm3.608-2.557h2.887a6.945,6.945,0,0,1-.746,2.557H11.309a13.766,13.766,0,0,0,.338-2.557Zm2.116-3.835H11.3a7.475,7.475,0,0,0-1.632-3.36,6.86,6.86,0,0,1,4.1,3.358ZM5.815,1.252A7.373,7.373,0,0,0,4.176,4.614H1.684A6.91,6.91,0,0,1,5.81,1.245ZM2.029,11.644h2.3a6.886,6.886,0,0,0,1.479,2.78,6.889,6.889,0,0,1-3.786-2.787Zm7.639,2.78a7.064,7.064,0,0,0,1.472-2.78h2.282a6.938,6.938,0,0,1-3.761,2.78Z" transform="translate(-0.238 -0.325)" fill="#fff"/>
</svg>
