<svg xmlns="http://www.w3.org/2000/svg" width="24.999" height="24.999" viewBox="0 0 24.999 24.999">
  <path id="Youtube_Square" data-name="Youtube Square" d="M10.424,11.367l5.312,3.019L10.424,17.4ZM25,4.553V24.2a2.679,2.679,0,0,1-2.678,2.678H2.678A2.679,2.679,0,0,1,0,24.2V4.553A2.679,2.679,0,0,1,2.678,1.875H22.32A2.679,2.679,0,0,1,25,4.553Zm-2.344,9.838a26.812,26.812,0,0,0-.424-4.922,2.547,2.547,0,0,0-1.8-1.808c-1.579-.43-7.935-.43-7.935-.43s-6.356,0-7.935.43a2.547,2.547,0,0,0-1.8,1.808,26.78,26.78,0,0,0-.424,4.922,26.813,26.813,0,0,0,.424,4.922,2.51,2.51,0,0,0,1.8,1.78c1.579.424,7.935.424,7.935.424s6.356,0,7.935-.43a2.51,2.51,0,0,0,1.8-1.78A26.73,26.73,0,0,0,22.655,14.391Z" transform="translate(0 -1.875)" fill="#fff"/>
</svg>
